<svg width="140" height="65" viewBox="0 0 140 65" fill="none" xmlns="http://www.w3.org/2000/svg">
<path d="M40 27H100C100 28.6569 98.6569 30 97 30H43C41.3431 30 40 28.6569 40 27Z" fill="white"/>
<path d="M57 29H82C82 30.6569 80.6569 32 79 32H60C58.3431 32 57 30.6569 57 29Z" fill="white"/>
<path d="M44.7733 7.96V22H41.3533V7.96H44.7733ZM56.3317 22.14C55.3051 22.14 54.3851 21.9733 53.5717 21.64C52.7584 21.3067 52.1051 20.8133 51.6117 20.16C51.1317 19.5067 50.8784 18.72 50.8517 17.8H54.4917C54.5451 18.32 54.7251 18.72 55.0317 19C55.3384 19.2667 55.7384 19.4 56.2317 19.4C56.7384 19.4 57.1384 19.2867 57.4317 19.06C57.7251 18.82 57.8717 18.4933 57.8717 18.08C57.8717 17.7333 57.7517 17.4467 57.5117 17.22C57.2851 16.9933 56.9984 16.8067 56.6517 16.66C56.3184 16.5133 55.8384 16.3467 55.2117 16.16C54.3051 15.88 53.5651 15.6 52.9917 15.32C52.4184 15.04 51.9251 14.6267 51.5117 14.08C51.0984 13.5333 50.8917 12.82 50.8917 11.94C50.8917 10.6333 51.3651 9.61333 52.3117 8.88C53.2584 8.13333 54.4917 7.76 56.0117 7.76C57.5584 7.76 58.8051 8.13333 59.7517 8.88C60.6984 9.61333 61.2051 10.64 61.2717 11.96H57.5717C57.5451 11.5067 57.3784 11.1533 57.0717 10.9C56.7651 10.6333 56.3717 10.5 55.8917 10.5C55.4784 10.5 55.1451 10.6133 54.8917 10.84C54.6384 11.0533 54.5117 11.3667 54.5117 11.78C54.5117 12.2333 54.7251 12.5867 55.1517 12.84C55.5784 13.0933 56.2451 13.3667 57.1517 13.66C58.0584 13.9667 58.7917 14.26 59.3517 14.54C59.9251 14.82 60.4184 15.2267 60.8317 15.76C61.2451 16.2933 61.4517 16.98 61.4517 17.82C61.4517 18.62 61.2451 19.3467 60.8317 20C60.4317 20.6533 59.8451 21.1733 59.0717 21.56C58.2984 21.9467 57.3851 22.14 56.3317 22.14ZM80.1164 22H76.6964L70.9764 13.34V22H67.5564V7.96H70.9764L76.6964 16.66V7.96H80.1164V22ZM91.8555 7.96C93.3355 7.96 94.6288 8.25333 95.7355 8.84C96.8421 9.42667 97.6955 10.2533 98.2955 11.32C98.9088 12.3733 99.2155 13.5933 99.2155 14.98C99.2155 16.3533 98.9088 17.5733 98.2955 18.64C97.6955 19.7067 96.8355 20.5333 95.7155 21.12C94.6088 21.7067 93.3221 22 91.8555 22H86.5955V7.96H91.8555ZM91.6355 19.04C92.9288 19.04 93.9355 18.6867 94.6555 17.98C95.3755 17.2733 95.7355 16.2733 95.7355 14.98C95.7355 13.6867 95.3755 12.68 94.6555 11.96C93.9355 11.24 92.9288 10.88 91.6355 10.88H90.0155V19.04H91.6355Z" fill="white"/>
<path d="M16.7879 54.196C14.9399 54.196 13.2412 53.7667 11.6919 52.908C10.1612 52.0493 8.93853 50.8547 8.02386 49.324C7.12786 47.7747 6.67986 46.0387 6.67986 44.116C6.67986 42.1933 7.12786 40.4667 8.02386 38.936C8.93853 37.4053 10.1612 36.2107 11.6919 35.352C13.2412 34.4933 14.9399 34.064 16.7879 34.064C18.6359 34.064 20.3252 34.4933 21.8559 35.352C23.4052 36.2107 24.6185 37.4053 25.4959 38.936C26.3919 40.4667 26.8399 42.1933 26.8399 44.116C26.8399 46.0387 26.3919 47.7747 25.4959 49.324C24.5999 50.8547 23.3865 52.0493 21.8559 52.908C20.3252 53.7667 18.6359 54.196 16.7879 54.196ZM16.7879 49.828C18.3559 49.828 19.6065 49.3053 20.5399 48.26C21.4919 47.2147 21.9679 45.8333 21.9679 44.116C21.9679 42.38 21.4919 40.9987 20.5399 39.972C19.6065 38.9267 18.3559 38.404 16.7879 38.404C15.2012 38.404 13.9319 38.9173 12.9799 39.944C12.0465 40.9707 11.5799 42.3613 11.5799 44.116C11.5799 45.852 12.0465 47.2427 12.9799 48.288C13.9319 49.3147 15.2012 49.828 16.7879 49.828ZM34.2916 40.588C34.7582 39.86 35.4022 39.272 36.2236 38.824C37.0449 38.376 38.0062 38.152 39.1076 38.152C40.3956 38.152 41.5622 38.4787 42.6076 39.132C43.6529 39.7853 44.4742 40.7187 45.0716 41.932C45.6876 43.1453 45.9956 44.5547 45.9956 46.16C45.9956 47.7653 45.6876 49.184 45.0716 50.416C44.4742 51.6293 43.6529 52.572 42.6076 53.244C41.5622 53.8973 40.3956 54.224 39.1076 54.224C38.0249 54.224 37.0636 54 36.2236 53.552C35.4022 53.104 34.7582 52.5253 34.2916 51.816V61.448H29.5036V38.376H34.2916V40.588ZM41.1236 46.16C41.1236 44.9653 40.7876 44.032 40.1156 43.36C39.4622 42.6693 38.6502 42.324 37.6796 42.324C36.7276 42.324 35.9156 42.6693 35.2436 43.36C34.5902 44.0507 34.2636 44.9933 34.2636 46.188C34.2636 47.3827 34.5902 48.3253 35.2436 49.016C35.9156 49.7067 36.7276 50.052 37.6796 50.052C38.6316 50.052 39.4436 49.7067 40.1156 49.016C40.7876 48.3067 41.1236 47.3547 41.1236 46.16ZM63.2355 45.936C63.2355 46.384 63.2075 46.8507 63.1515 47.336H52.3155C52.3902 48.3067 52.6982 49.0533 53.2395 49.576C53.7995 50.08 54.4808 50.332 55.2835 50.332C56.4782 50.332 57.3088 49.828 57.7755 48.82H62.8715C62.6102 49.8467 62.1342 50.7707 61.4435 51.592C60.7715 52.4133 59.9222 53.0573 58.8955 53.524C57.8688 53.9907 56.7208 54.224 55.4515 54.224C53.9208 54.224 52.5582 53.8973 51.3635 53.244C50.1688 52.5907 49.2355 51.6573 48.5635 50.444C47.8915 49.2307 47.5555 47.812 47.5555 46.188C47.5555 44.564 47.8822 43.1453 48.5355 41.932C49.2075 40.7187 50.1408 39.7853 51.3355 39.132C52.5302 38.4787 53.9022 38.152 55.4515 38.152C56.9635 38.152 58.3075 38.4693 59.4835 39.104C60.6595 39.7387 61.5742 40.644 62.2275 41.82C62.8995 42.996 63.2355 44.368 63.2355 45.936ZM58.3355 44.676C58.3355 43.8547 58.0555 43.2013 57.4955 42.716C56.9355 42.2307 56.2355 41.988 55.3955 41.988C54.5928 41.988 53.9115 42.2213 53.3515 42.688C52.8102 43.1547 52.4742 43.8173 52.3435 44.676H58.3355ZM75.2814 38.208C77.1107 38.208 78.5667 38.8053 79.6494 40C80.7507 41.176 81.3014 42.8 81.3014 44.872V54H76.5414V45.516C76.5414 44.4707 76.2707 43.6587 75.7294 43.08C75.1881 42.5013 74.4601 42.212 73.5454 42.212C72.6307 42.212 71.9027 42.5013 71.3614 43.08C70.8201 43.6587 70.5494 44.4707 70.5494 45.516V54H65.7614V38.376H70.5494V40.448C71.0347 39.7573 71.6881 39.216 72.5094 38.824C73.3307 38.4133 74.2547 38.208 75.2814 38.208ZM89.4166 50.304H95.6886V54H84.6286V34.344H89.4166V50.304ZM97.0203 46.16C97.0203 44.5547 97.319 43.1453 97.9163 41.932C98.5323 40.7187 99.363 39.7853 100.408 39.132C101.454 38.4787 102.62 38.152 103.908 38.152C105.01 38.152 105.971 38.376 106.792 38.824C107.632 39.272 108.276 39.86 108.724 40.588V38.376H113.512V54H108.724V51.788C108.258 52.516 107.604 53.104 106.764 53.552C105.943 54 104.982 54.224 103.88 54.224C102.611 54.224 101.454 53.8973 100.408 53.244C99.363 52.572 98.5323 51.6293 97.9163 50.416C97.319 49.184 97.0203 47.7653 97.0203 46.16ZM108.724 46.188C108.724 44.9933 108.388 44.0507 107.716 43.36C107.063 42.6693 106.26 42.324 105.308 42.324C104.356 42.324 103.544 42.6693 102.872 43.36C102.219 44.032 101.892 44.9653 101.892 46.16C101.892 47.3547 102.219 48.3067 102.872 49.016C103.544 49.7067 104.356 50.052 105.308 50.052C106.26 50.052 107.063 49.7067 107.716 49.016C108.388 48.3253 108.724 47.3827 108.724 46.188ZM121.764 40.588C122.212 39.86 122.856 39.272 123.696 38.824C124.536 38.376 125.498 38.152 126.58 38.152C127.868 38.152 129.035 38.4787 130.08 39.132C131.126 39.7853 131.947 40.7187 132.544 41.932C133.16 43.1453 133.468 44.5547 133.468 46.16C133.468 47.7653 133.16 49.184 132.544 50.416C131.947 51.6293 131.126 52.572 130.08 53.244C129.035 53.8973 127.868 54.224 126.58 54.224C125.479 54.224 124.518 54.0093 123.696 53.58C122.875 53.132 122.231 52.544 121.764 51.816V54H116.976V33.28H121.764V40.588ZM128.596 46.16C128.596 44.9653 128.26 44.032 127.588 43.36C126.935 42.6693 126.123 42.324 125.152 42.324C124.2 42.324 123.388 42.6693 122.716 43.36C122.063 44.0507 121.736 44.9933 121.736 46.188C121.736 47.3827 122.063 48.3253 122.716 49.016C123.388 49.7067 124.2 50.052 125.152 50.052C126.104 50.052 126.916 49.7067 127.588 49.016C128.26 48.3067 128.596 47.3547 128.596 46.16Z" fill="white"/>
</svg>
